PathFileType	4	(x/y/z)	S04_P20_T17.trc
DataRate	CameraRate	NumFrames	NumMarkers	Units	OrigDataRate	OrigDataStartFrame	OrigNumFrames
240	240	4	51	mm	240	232	370
Frame#	Time	Sternum			R.Acromium			L.Acromium			Top.Head			R.ASIS			L.ASIS			R.PSIS			L.PSIS			R.Great.Tro			L.Great.Tro			R.Iliac.Crest			L.Iliac.Crest			V.Sacral			R.Thigh.Upper.Post			R.Thigh.Lower.Ant			R.Thigh.Lower.Post			R.Thigh.Upper.Ant			R.Knee.Lat			R.Knee.Med			R.Shank.Upper.Post			R.Shank.Lower.Ant			R.Shank.Lower.Post			R.Shank.Upper.Ant			R.Ankle.Lat			R.Ankle.Med			R.Heel.Upper			R.Heel.Med			R.Heel.Lat			R.Toe.Lat			R.Toe.Med			R.Toe.Tip			L.Thigh.Upper.Post			L.Thigh.Lower.Ant			L.Thigh.Lower.Post			L.Thigh.Upper.Ant			L.Knee.Lat			L.Knee.Med			L.Shank.Upper.Post			L.Shank.Lower.Ant			L.Shank.Lower.Post			L.Shank.Upper.Ant			L.Ankle.Lat			L.Ankle.Med			L.Heel.Upper			L.Heel.Med			L.Heel.Lat			L.Toe.Lat			L.Toe.Med			L.Toe.Tip			Cervical.Spine			Back			
		X1	Y1	Z1	X2	Y2	Z2	X3	Y3	Z3	X4	Y4	Z4	X5	Y5	Z5	X6	Y6	Z6	X7	Y7	Z7	X8	Y8	Z8	X9	Y9	Z9	X10	Y10	Z10	X11	Y11	Z11	X12	Y12	Z12	X13	Y13	Z13	X14	Y14	Z14	X15	Y15	Z15	X16	Y16	Z16	X17	Y17	Z17	X18	Y18	Z18	X19	Y19	Z19	X20	Y20	Z20	X21	Y21	Z21	X22	Y22	Z22	X23	Y23	Z23	X24	Y24	Z24	X25	Y25	Z25	X26	Y26	Z26	X27	Y27	Z27	X28	Y28	Z28	X29	Y29	Z29	X30	Y30	Z30	X31	Y31	Z31	X32	Y32	Z32	X33	Y33	Z33	X34	Y34	Z34	X35	Y35	Z35	X36	Y36	Z36	X37	Y37	Z37	X38	Y38	Z38	X39	Y39	Z39	X40	Y40	Z40	X41	Y41	Z41	X42	Y42	Z42	X43	Y43	Z43	X44	Y44	Z44	X45	Y45	Z45	X46	Y46	Z46	X47	Y47	Z47	X48	Y48	Z48	X49	Y49	Z49	X50	Y50	Z50	X51	Y51	Z51	

232	0.9625	-87.633	1257.6	277.37	-188.58	1486.1	466.49	-231.45	1475.9	118.68	-117.77	1808.3	276.09	-128.64	977.29	427.54	-123	999.51	178.18	-337.68	1009.7	316.81	-327.87	1012.4	237.01	-225.92	899.06	482.14	-223.13	907.1	103.01	-212.61	1067.5	464.63	-228.63	1074.6	126.93	-351.22	968.21	277.08	-279.38	651.62	467.15	-219.32	556.87	434.17	-295.18	562.76	453.35	-191.07	662.97	454.74	-294.32	488.88	443.89	-312.98	492.83	310.14	-448.83	304.7	433.01	-414.46	207.9	390.2	-475.04	240.56	413.16	-391.17	272.76	416.86	-506.37	129.73	391.34	-487.21	138.61	304.17	-579.87	111.2	336.2	-576.32	78.747	307.63	-581.97	80.642	371.79	-419.57	41.048	427.04	-379.99	35.968	308.23	-316.44	42.748	357.77	-164.4	669.63	116.37	-54.287	607.76	116.97	-124.23	590.47	129.91	-99.607	684.36	99.954	-51.613	519.02	132.09	-39.076	509.79	258.84	-66.866	321.25	136.33	29.914	267.06	130.54	-32.021	251.58	141.91	-4.4764	335.41	124.43	77.374	115.99	146.49	81.593	130.62	239.16	19.012	60.167	196.2	37.387	42.036	232.02	34.026	34.696	170.3	204.38	95.544	124.27	232.4	122.62	236.37	277.92	153.42	185.45	-254.76	1539.7	302.55	-346.37	1280.6	288.69
233	0.96667	-81.817	1257.3	276.68	-182.86	1485.8	465.75	-225.99	1475.5	117.97	-112.16	1807.9	275.31	-122.57	977.01	427.11	-116.76	999.3	177.74	-331.55	1009.3	316.15	-321.76	1012.1	236.32	-219.88	898.69	481.66	-216.69	906.79	102.55	-206.63	1067.2	464.14	-222.6	1074.2	126.39	-345.1	967.79	276.4	-272.77	651.04	466.94	-212.42	556.36	434.32	-288.37	562.15	453.18	-184.45	662.56	454.72	-287.66	488.25	443.89	-306	492.14	310.16	-444.46	306.02	433	-411.33	208.73	390.23	-471.52	242.24	413.14	-387.24	273.33	416.91	-504.42	131.83	391.38	-484.68	140.37	304.26	-578	114.54	336.21	-574.96	82.178	307.55	-580.66	83.956	371.74	-419.19	41.412	427.01	-379.8	36.056	308.23	-316.22	42.422	357.68	-157.84	669.43	116.04	-47.695	607.63	117.1	-117.68	590.28	129.68	-92.96	684.24	99.975	-45.114	518.75	132.09	-33.089	509.49	258.6	-62.019	321.11	135.95	34.276	266.02	130.82	-27.858	251.12	141.7	0.58825	334.68	124.57	80.108	114.8	146.78	84.029	129.25	239.51	21.1	60.046	196.21	38.988	41.615	232.04	35.726	34.371	170.27	206.82	93.325	125.18	234.59	119.92	237.4	280.62	150.39	186.7	-249.17	1539.4	301.83	-340.58	1280.2	288.14
234	0.97083	-75.985	1257.1	275.99	-177.15	1485.5	465	-220.5	1475.1	117.25	-106.55	1807.7	274.53	-116.48	976.78	426.65	-110.49	999.14	177.28	-325.39	1008.9	315.48	-315.63	1011.7	235.63	-213.8	898.35	481.16	-210.24	906.51	102.07	-200.64	1066.8	463.63	-216.53	1073.8	125.83	-338.95	967.41	275.7	-265.99	650.43	466.74	-205.3	555.85	434.52	-281.35	561.49	453.02	-177.66	662.15	454.74	-280.76	487.6	443.92	-298.77	491.41	310.2	-439.87	307.41	433	-408.02	209.64	390.28	-467.79	244.02	413.15	-383.11	273.96	416.99	-502.31	134.07	391.45	-481.95	142.23	304.37	-575.93	118.1	336.22	-573.43	85.848	307.47	-579.19	87.496	371.69	-418.77	41.833	426.97	-379.59	36.17	308.23	-316.02	42.104	357.58	-151.27	669.26	115.69	-41.106	607.52	117.23	-111.13	590.12	129.44	-86.303	684.17	100	-38.622	518.51	132.09	-27.126	509.22	258.35	-57.245	321.02	135.55	38.532	264.98	131.11	-23.805	250.69	141.48	5.5817	333.96	124.73	82.636	113.61	147.06	86.265	127.87	239.85	22.94	60.015	196.21	40.297	41.265	232.04	37.125	34.116	170.24	209.01	90.967	126.1	236.55	117.06	238.44	283.13	147.13	187.96	-243.58	1539	301.1	-334.78	1279.7	287.56
235	0.975	-70.139	1256.9	275.29	-171.45	1485.3	464.23	-214.99	1474.8	116.51	-100.96	1807.4	273.73	-110.36	976.58	426.16	-104.2	999.01	176.79	-319.21	1008.5	314.8	-309.48	1011.4	234.92	-207.66	898.03	480.65	-203.78	906.27	101.58	-194.63	1066.6	463.11	-210.42	1073.4	125.24	-332.8	967.07	275	-259.04	649.8	466.56	-197.95	555.33	434.77	-274.11	560.8	452.89	-170.7	661.76	454.78	-273.62	486.92	443.98	-291.28	490.64	310.27	-435.06	308.88	433.01	-404.51	210.62	390.35	-463.85	245.88	413.17	-378.78	274.67	417.09	-500.02	136.44	391.54	-479.02	144.19	304.51	-573.64	121.89	336.24	-571.7	89.766	307.37	-577.54	91.273	371.63	-418.32	42.321	426.92	-379.36	36.316	308.22	-315.82	41.79	357.47	-144.72	669.13	115.33	-34.536	607.44	117.36	-104.59	589.98	129.19	-79.651	684.13	100.02	-32.154	518.29	132.09	-21.202	508.97	258.1	-52.535	320.96	135.16	42.701	263.95	131.41	-19.84	250.29	141.26	10.511	333.26	124.89	84.994	112.42	147.33	88.338	126.5	240.18	24.578	60.071	196.21	41.365	40.989	232.04	38.273	33.931	170.21	210.98	88.502	127	238.33	114.07	239.46	285.48	143.68	189.19	-237.99	1538.7	300.35	-328.96	1279.3	286.95
